<svg width="96" height="96" xmlns="http://www.w3.org/2000/svg" xmlns:xlink="http://www.w3.org/1999/xlink" xml:space="preserve" overflow="hidden"><g transform="translate(-720 -104)"><path d="M784.42 176 751.42 176C747.278 176 743.92 179.358 743.92 183.5 743.92 187.642 747.278 191 751.42 191L784.42 191C788.562 191 791.92 187.642 791.92 183.5 791.92 179.358 788.562 176 784.42 176ZM753.42 186.5C751.763 186.5 750.42 185.157 750.42 183.5 750.42 181.843 751.763 180.5 753.42 180.5 755.077 180.5 756.42 181.843 756.42 183.5 756.42 185.157 755.077 186.5 753.42 186.5ZM767.92 186.5C766.263 186.5 764.92 185.157 764.92 183.5 764.92 181.843 766.263 180.5 767.92 180.5 769.577 180.5 770.92 181.843 770.92 183.5 770.92 185.157 769.577 186.5 767.92 186.5ZM782.42 186.5C780.763 186.5 779.42 185.157 779.42 183.5 779.42 181.843 780.763 180.5 782.42 180.5 784.077 180.5 785.42 181.843 785.42 183.5 785.42 185.157 784.077 186.5 782.42 186.5Z" fill="#FFFFFF"/><path d="M774.83 132C774.83 132.828 774.158 133.5 773.33 133.5 772.502 133.5 771.83 132.828 771.83 132 771.83 131.172 772.502 130.5 773.33 130.5 774.158 130.5 774.83 131.172 774.83 132Z" fill="#FFFFFF"/><path d="M776.61 122 770 122 770 117.45C771.913 116.345 772.569 113.899 771.464 111.986 770.359 110.073 767.913 109.417 766 110.522 764.087 111.626 763.431 114.073 764.536 115.986 764.887 116.594 765.392 117.099 766 117.45L766 122 759.39 122C756.968 122.006 755.005 123.968 755 126.39L755 137.61C755.005 140.032 756.968 141.995 759.39 142L776.61 142C779.032 141.995 780.995 140.032 781 137.61L781 126.39C780.995 123.968 779.032 122.006 776.61 122ZM763 135C761.343 135 760 133.657 760 132 760 130.343 761.343 129 763 129 764.657 129 766 130.343 766 132 766 133.657 764.657 135 763 135ZM773 135C771.343 135 770 133.657 770 132 770 130.343 771.343 129 773 129 774.657 129 776 130.343 776 132 776 133.657 774.657 135 773 135Z" fill="#FFFFFF"/><path d="M764.83 132C764.83 132.828 764.158 133.5 763.33 133.5 762.502 133.5 761.83 132.828 761.83 132 761.83 131.172 762.502 130.5 763.33 130.5 764.158 130.5 764.83 131.172 764.83 132Z" fill="#FFFFFF"/><path d="M794 162.82 794 154.49C794 152.01 791.99 150 789.51 150L784 150 784 145 752 145 752 151 744.49 151C744.219 151 744 150.781 744 150.51L744 142.22C747.438 141.205 749.401 137.595 748.386 134.158 748.114 133.236 747.641 132.386 747 131.67L744 134.33C744.42 134.786 744.658 135.38 744.67 136 744.662 137.381 743.537 138.494 742.156 138.486 740.776 138.479 739.663 137.354 739.67 135.973 739.673 135.376 739.89 134.801 740.28 134.35L737.28 131.72C734.923 134.428 735.208 138.534 737.915 140.89 738.528 141.424 739.235 141.837 740 142.11L740 150.51C740 152.99 742.01 155 744.49 155L752 155 752 173 784 173 784 154 789.51 154C789.781 154 790 154.219 790 154.49L790 162.82C786.584 163.925 784.711 167.59 785.816 171.005 786.093 171.86 786.544 172.648 787.14 173.32L790.14 170.66C789.726 170.206 789.498 169.614 789.5 169 789.501 167.619 790.621 166.501 792.002 166.502 793.383 166.503 794.501 167.624 794.5 169.004 794.5 169.61 794.279 170.195 793.88 170.65L796.88 173.28C799.246 170.588 798.982 166.487 796.289 164.121 795.623 163.535 794.844 163.093 794 162.82ZM780 159 777.22 159C777.123 159.017 777.031 159.055 776.95 159.11L773.89 162.24 771.56 156.72 767.21 165.72 764.16 154 761.81 159 757 159 757 157 760.54 157 764.7 148.15 767.78 159.93 771.69 151.93 774.57 158.75 775.57 157.75C776.009 157.306 776.596 157.039 777.22 157L780 157Z" fill="#FFFFFF"/></g></svg>